<mxfile host="app.diagrams.net" modified="2023-07-14T13:02:35.275Z" agent="Mozilla/5.0 (Macintosh; Intel Mac OS X 10_15_7) AppleWebKit/605.1.15 (KHTML, like Gecko) Version/16.5.1 Safari/605.1.15" version="21.6.2" etag="tDpsH7mdix5DW7o8p0Lq" type="github">
  <diagram name="Page-1" id="pelNosmV-B0fDyqw2Le3">
    <mxGraphModel>
      <root>
        <mxCell id="0" />
        <mxCell id="1" parent="0" />
      </root>
    </mxGraphModel>
  </diagram>
</mxfile>
